<svg xmlns="http://www.w3.org/2000/svg" viewBox="0 0 640 400" font-family="Segoe UI, Arial, sans-serif">
  <rect width="640" height="400" fill="#fafaf9"/>
  <rect width="640" height="48" fill="#ffffff"/>
  <line x1="0" y1="48" x2="640" y2="48" stroke="#e6e4e0" stroke-width="2"/>
  <circle cx="28" cy="24" r="10" fill="#0d9488"/>
  <rect x="48" y="17" width="160" height="14" rx="4" fill="#1c1b1a" opacity="0.85"/>
  <!-- heatmap panel -->
  <rect x="24" y="68" width="430" height="308" rx="10" fill="#ffffff" stroke="#e6e4e0"/>
  <rect x="44" y="86" width="140" height="11" rx="3" fill="#6b6964"/>
  <!-- 7 rows (weekday) x 12 cols (hour) -->
  <g>
    <!-- row template: y starts 116, cell 30x30 gap 4 -->
    <!-- Mon -->
    <g transform="translate(48,116)">
      <rect width="30" height="30" rx="4" fill="#ccfbf1"/><rect x="34" width="30" height="30" rx="4" fill="#99f6e4"/><rect x="68" width="30" height="30" rx="4" fill="#5eead4"/><rect x="102" width="30" height="30" rx="4" fill="#99f6e4"/><rect x="136" width="30" height="30" rx="4" fill="#2dd4bf"/><rect x="170" width="30" height="30" rx="4" fill="#14b8a6"/><rect x="204" width="30" height="30" rx="4" fill="#0d9488"/><rect x="238" width="30" height="30" rx="4" fill="#14b8a6"/><rect x="272" width="30" height="30" rx="4" fill="#5eead4"/><rect x="306" width="30" height="30" rx="4" fill="#99f6e4"/><rect x="340" width="30" height="30" rx="4" fill="#ccfbf1"/><rect x="374" width="30" height="30" rx="4" fill="#f0fdfa"/>
    </g>
    <g transform="translate(48,150)">
      <rect width="30" height="30" rx="4" fill="#f0fdfa"/><rect x="34" width="30" height="30" rx="4" fill="#ccfbf1"/><rect x="68" width="30" height="30" rx="4" fill="#99f6e4"/><rect x="102" width="30" height="30" rx="4" fill="#5eead4"/><rect x="136" width="30" height="30" rx="4" fill="#5eead4"/><rect x="170" width="30" height="30" rx="4" fill="#2dd4bf"/><rect x="204" width="30" height="30" rx="4" fill="#14b8a6"/><rect x="238" width="30" height="30" rx="4" fill="#2dd4bf"/><rect x="272" width="30" height="30" rx="4" fill="#99f6e4"/><rect x="306" width="30" height="30" rx="4" fill="#ccfbf1"/><rect x="340" width="30" height="30" rx="4" fill="#f0fdfa"/><rect x="374" width="30" height="30" rx="4" fill="#ccfbf1"/>
    </g>
    <g transform="translate(48,184)">
      <rect width="30" height="30" rx="4" fill="#ccfbf1"/><rect x="34" width="30" height="30" rx="4" fill="#99f6e4"/><rect x="68" width="30" height="30" rx="4" fill="#5eead4"/><rect x="102" width="30" height="30" rx="4" fill="#2dd4bf"/><rect x="136" width="30" height="30" rx="4" fill="#14b8a6"/><rect x="170" width="30" height="30" rx="4" fill="#0d9488"/><rect x="204" width="30" height="30" rx="4" fill="#0f766e"/><rect x="238" width="30" height="30" rx="4" fill="#0d9488"/><rect x="272" width="30" height="30" rx="4" fill="#14b8a6"/><rect x="306" width="30" height="30" rx="4" fill="#5eead4"/><rect x="340" width="30" height="30" rx="4" fill="#99f6e4"/><rect x="374" width="30" height="30" rx="4" fill="#ccfbf1"/>
    </g>
    <g transform="translate(48,218)">
      <rect width="30" height="30" rx="4" fill="#f0fdfa"/><rect x="34" width="30" height="30" rx="4" fill="#ccfbf1"/><rect x="68" width="30" height="30" rx="4" fill="#99f6e4"/><rect x="102" width="30" height="30" rx="4" fill="#99f6e4"/><rect x="136" width="30" height="30" rx="4" fill="#5eead4"/><rect x="170" width="30" height="30" rx="4" fill="#2dd4bf"/><rect x="204" width="30" height="30" rx="4" fill="#14b8a6"/><rect x="238" width="30" height="30" rx="4" fill="#2dd4bf"/><rect x="272" width="30" height="30" rx="4" fill="#5eead4"/><rect x="306" width="30" height="30" rx="4" fill="#99f6e4"/><rect x="340" width="30" height="30" rx="4" fill="#ccfbf1"/><rect x="374" width="30" height="30" rx="4" fill="#f0fdfa"/>
    </g>
    <g transform="translate(48,252)">
      <rect width="30" height="30" rx="4" fill="#ccfbf1"/><rect x="34" width="30" height="30" rx="4" fill="#99f6e4"/><rect x="68" width="30" height="30" rx="4" fill="#5eead4"/><rect x="102" width="30" height="30" rx="4" fill="#2dd4bf"/><rect x="136" width="30" height="30" rx="4" fill="#2dd4bf"/><rect x="170" width="30" height="30" rx="4" fill="#14b8a6"/><rect x="204" width="30" height="30" rx="4" fill="#0d9488"/><rect x="238" width="30" height="30" rx="4" fill="#14b8a6"/><rect x="272" width="30" height="30" rx="4" fill="#2dd4bf"/><rect x="306" width="30" height="30" rx="4" fill="#5eead4"/><rect x="340" width="30" height="30" rx="4" fill="#99f6e4"/><rect x="374" width="30" height="30" rx="4" fill="#ccfbf1"/>
    </g>
    <g transform="translate(48,286)">
      <rect width="30" height="30" rx="4" fill="#99f6e4"/><rect x="34" width="30" height="30" rx="4" fill="#5eead4"/><rect x="68" width="30" height="30" rx="4" fill="#2dd4bf"/><rect x="102" width="30" height="30" rx="4" fill="#14b8a6"/><rect x="136" width="30" height="30" rx="4" fill="#0d9488"/><rect x="170" width="30" height="30" rx="4" fill="#0f766e"/><rect x="204" width="30" height="30" rx="4" fill="#115e59"/><rect x="238" width="30" height="30" rx="4" fill="#0f766e"/><rect x="272" width="30" height="30" rx="4" fill="#0d9488"/><rect x="306" width="30" height="30" rx="4" fill="#14b8a6"/><rect x="340" width="30" height="30" rx="4" fill="#2dd4bf"/><rect x="374" width="30" height="30" rx="4" fill="#5eead4"/>
    </g>
    <g transform="translate(48,320)">
      <rect width="30" height="30" rx="4" fill="#5eead4"/><rect x="34" width="30" height="30" rx="4" fill="#2dd4bf"/><rect x="68" width="30" height="30" rx="4" fill="#14b8a6"/><rect x="102" width="30" height="30" rx="4" fill="#0d9488"/><rect x="136" width="30" height="30" rx="4" fill="#0f766e"/><rect x="170" width="30" height="30" rx="4" fill="#115e59"/><rect x="204" width="30" height="30" rx="4" fill="#134e4a"/><rect x="238" width="30" height="30" rx="4" fill="#115e59"/><rect x="272" width="30" height="30" rx="4" fill="#0f766e"/><rect x="306" width="30" height="30" rx="4" fill="#0d9488"/><rect x="340" width="30" height="30" rx="4" fill="#14b8a6"/><rect x="374" width="30" height="30" rx="4" fill="#2dd4bf"/>
    </g>
  </g>
  <!-- side panel: cash calculator -->
  <rect x="470" y="68" width="146" height="308" rx="10" fill="#ffffff" stroke="#e6e4e0"/>
  <rect x="486" y="86" width="90" height="11" rx="3" fill="#6b6964"/>
  <text x="486" y="150" font-size="26" font-weight="700" fill="#0d9488">₫ 84.5M</text>
  <rect x="486" y="170" width="110" height="9" rx="3" fill="#d6d4d0"/>
  <rect x="486" y="190" width="86" height="9" rx="3" fill="#d6d4d0"/>
  <rect x="486" y="226" width="114" height="34" rx="8" fill="#ccfbf1"/>
  <rect x="486" y="270" width="114" height="34" rx="8" fill="#f5f5f4"/>
  <rect x="486" y="314" width="114" height="34" rx="8" fill="#0d9488"/>
</svg>
