<svg xmlns="http://www.w3.org/2000/svg" viewBox="0 0 640 400" font-family="Segoe UI, Arial, sans-serif">
  <rect width="640" height="400" fill="#fafaf9"/>
  <rect width="640" height="48" fill="#ffffff"/>
  <line x1="0" y1="48" x2="640" y2="48" stroke="#e6e4e0" stroke-width="2"/>
  <circle cx="28" cy="24" r="10" fill="#278a6e"/>
  <rect x="48" y="17" width="160" height="14" rx="4" fill="#1c1b1a" opacity="0.85"/>
  <!-- left panel: budget cycle donut + remaining amount -->
  <rect x="24" y="68" width="300" height="308" rx="10" fill="#ffffff" stroke="#e6e4e0"/>
  <rect x="44" y="86" width="120" height="11" rx="3" fill="#6b6964"/>
  <g transform="translate(112,192)">
    <circle r="56" fill="none" stroke="#dcfce7" stroke-width="18"/>
    <circle r="56" fill="none" stroke="#278a6e" stroke-width="18"
            stroke-dasharray="228 352" stroke-linecap="round" transform="rotate(-90)"/>
    <text x="0" y="-2" text-anchor="middle" font-size="24" font-weight="700" fill="#278a6e">65%</text>
    <text x="0" y="18" text-anchor="middle" font-size="11" fill="#6b6964">of cycle</text>
  </g>
  <text x="44" y="292" font-size="24" font-weight="700" fill="#278a6e">₫ 12.4M</text>
  <rect x="44" y="306" width="96" height="9" rx="3" fill="#d6d4d0"/>
  <!-- category bars: green under budget, amber near limit, red over -->
  <g transform="translate(44,330)">
    <rect width="200" height="10" rx="5" fill="#f0f0ee"/><rect width="128" height="10" rx="5" fill="#278a6e"/>
    <rect y="18" width="200" height="10" rx="5" fill="#f0f0ee"/><rect y="18" width="164" height="10" rx="5" fill="#d97706"/>
    <rect y="36" width="200" height="10" rx="5" fill="#f0f0ee"/><rect y="36" width="196" height="10" rx="5" fill="#dc2626"/>
  </g>
  <!-- right top panel: weekly meal-plan grid (7 days x 3 meals) -->
  <rect x="344" y="68" width="272" height="146" rx="10" fill="#ffffff" stroke="#e6e4e0"/>
  <rect x="362" y="84" width="100" height="10" rx="3" fill="#6b6964"/>
  <g transform="translate(362,106)">
    <g>
      <rect width="30" height="24" rx="4" fill="#dcfce7"/><rect x="34" width="30" height="24" rx="4" fill="#bbf7d0"/><rect x="68" width="30" height="24" rx="4" fill="#dcfce7"/><rect x="102" width="30" height="24" rx="4" fill="#86efac"/><rect x="136" width="30" height="24" rx="4" fill="#dcfce7"/><rect x="170" width="30" height="24" rx="4" fill="#bbf7d0"/><rect x="204" width="30" height="24" rx="4" fill="#f5f5f4"/>
    </g>
    <g transform="translate(0,28)">
      <rect width="30" height="24" rx="4" fill="#bbf7d0"/><rect x="34" width="30" height="24" rx="4" fill="#dcfce7"/><rect x="68" width="30" height="24" rx="4" fill="#86efac"/><rect x="102" width="30" height="24" rx="4" fill="#dcfce7"/><rect x="136" width="30" height="24" rx="4" fill="#bbf7d0"/><rect x="170" width="30" height="24" rx="4" fill="#f5f5f4"/><rect x="204" width="30" height="24" rx="4" fill="#dcfce7"/>
    </g>
    <g transform="translate(0,56)">
      <rect width="30" height="24" rx="4" fill="#dcfce7"/><rect x="34" width="30" height="24" rx="4" fill="#86efac"/><rect x="68" width="30" height="24" rx="4" fill="#bbf7d0"/><rect x="102" width="30" height="24" rx="4" fill="#22c55e"/><rect x="136" width="30" height="24" rx="4" fill="#dcfce7"/><rect x="170" width="30" height="24" rx="4" fill="#bbf7d0"/><rect x="204" width="30" height="24" rx="4" fill="#f5f5f4"/>
    </g>
  </g>
  <!-- right bottom panel: chores/shopping checklist -->
  <rect x="344" y="230" width="272" height="146" rx="10" fill="#ffffff" stroke="#e6e4e0"/>
  <rect x="362" y="246" width="80" height="10" rx="3" fill="#6b6964"/>
  <g transform="translate(362,270)">
    <circle cx="8" cy="8" r="8" fill="#278a6e"/><path d="M4.5 8 L7 10.5 L11.5 5.5" stroke="#ffffff" stroke-width="2" fill="none" stroke-linecap="round"/>
    <rect x="24" y="3" width="150" height="9" rx="3" fill="#d6d4d0"/>
    <circle cx="8" cy="34" r="8" fill="#278a6e"/><path d="M4.5 34 L7 36.5 L11.5 31.5" stroke="#ffffff" stroke-width="2" fill="none" stroke-linecap="round"/>
    <rect x="24" y="29" width="120" height="9" rx="3" fill="#d6d4d0"/>
    <circle cx="8" cy="60" r="8" fill="none" stroke="#d97706" stroke-width="2"/>
    <rect x="24" y="55" width="170" height="9" rx="3" fill="#d6d4d0"/>
    <circle cx="8" cy="86" r="8" fill="none" stroke="#d6d4d0" stroke-width="2"/>
    <rect x="24" y="81" width="96" height="9" rx="3" fill="#e6e4e0"/>
  </g>
</svg>
