<svg xmlns="http://www.w3.org/2000/svg" viewBox="0 0 640 400" font-family="Segoe UI, Arial, sans-serif">
  <rect width="640" height="400" fill="#fafaf9"/>
  <!-- header -->
  <rect width="640" height="48" fill="#ffffff"/>
  <line x1="0" y1="48" x2="640" y2="48" stroke="#e6e4e0" stroke-width="2"/>
  <circle cx="28" cy="24" r="10" fill="#2563eb"/>
  <rect x="48" y="17" width="150" height="14" rx="4" fill="#1c1b1a" opacity="0.85"/>
  <rect x="510" y="14" width="100" height="20" rx="10" fill="#dbeafe"/>
  <!-- stat cards -->
  <g>
    <rect x="24" y="68" width="184" height="84" rx="10" fill="#ffffff" stroke="#e6e4e0"/>
    <rect x="40" y="84" width="56" height="10" rx="3" fill="#a8a5a0"/>
    <text x="40" y="134" font-size="30" font-weight="700" fill="#2563eb">300+</text>
  </g>
  <g>
    <rect x="228" y="68" width="184" height="84" rx="10" fill="#ffffff" stroke="#e6e4e0"/>
    <rect x="244" y="84" width="72" height="10" rx="3" fill="#a8a5a0"/>
    <text x="244" y="134" font-size="30" font-weight="700" fill="#7c3aed">12 KPI</text>
  </g>
  <g>
    <rect x="432" y="68" width="184" height="84" rx="10" fill="#ffffff" stroke="#e6e4e0"/>
    <rect x="448" y="84" width="64" height="10" rx="3" fill="#a8a5a0"/>
    <text x="448" y="134" font-size="30" font-weight="700" fill="#0d9488">98.2%</text>
  </g>
  <!-- bar chart panel -->
  <rect x="24" y="172" width="392" height="204" rx="10" fill="#ffffff" stroke="#e6e4e0"/>
  <rect x="44" y="190" width="120" height="11" rx="3" fill="#6b6964"/>
  <g>
    <rect x="52"  y="290" width="26" height="62"  rx="3" fill="#2563eb"/>
    <rect x="90"  y="262" width="26" height="90"  rx="3" fill="#2563eb"/>
    <rect x="128" y="304" width="26" height="48"  rx="3" fill="#93c5fd"/>
    <rect x="166" y="240" width="26" height="112" rx="3" fill="#2563eb"/>
    <rect x="204" y="276" width="26" height="76"  rx="3" fill="#2563eb"/>
    <rect x="242" y="318" width="26" height="34"  rx="3" fill="#f59e0b"/>
    <rect x="280" y="252" width="26" height="100" rx="3" fill="#2563eb"/>
    <rect x="318" y="228" width="26" height="124" rx="3" fill="#1d4ed8"/>
    <rect x="356" y="284" width="26" height="68"  rx="3" fill="#2563eb"/>
  </g>
  <polyline points="65,282 103,252 141,294 179,230 217,266 255,306 293,242 331,218 369,272"
            fill="none" stroke="#7c3aed" stroke-width="3" stroke-linecap="round" stroke-linejoin="round"/>
  <!-- anomaly list panel -->
  <rect x="432" y="172" width="184" height="204" rx="10" fill="#ffffff" stroke="#e6e4e0"/>
  <rect x="448" y="190" width="96" height="11" rx="3" fill="#6b6964"/>
  <g>
    <circle cx="456" cy="226" r="5" fill="#dc2626"/><rect x="470" y="220" width="116" height="10" rx="3" fill="#d6d4d0"/>
    <circle cx="456" cy="254" r="5" fill="#f59e0b"/><rect x="470" y="248" width="100" height="10" rx="3" fill="#d6d4d0"/>
    <circle cx="456" cy="282" r="5" fill="#f59e0b"/><rect x="470" y="276" width="108" height="10" rx="3" fill="#d6d4d0"/>
    <circle cx="456" cy="310" r="5" fill="#0d9488"/><rect x="470" y="304" width="92"  height="10" rx="3" fill="#d6d4d0"/>
    <circle cx="456" cy="338" r="5" fill="#0d9488"/><rect x="470" y="332" width="112" height="10" rx="3" fill="#d6d4d0"/>
  </g>
</svg>
