<svg xmlns="http://www.w3.org/2000/svg" viewBox="0 0 640 400" font-family="Segoe UI, Arial, sans-serif">
  <rect width="640" height="400" fill="#fafaf9"/>
  <rect width="640" height="48" fill="#ffffff"/>
  <line x1="0" y1="48" x2="640" y2="48" stroke="#e6e4e0" stroke-width="2"/>
  <circle cx="28" cy="24" r="10" fill="#2563eb"/>
  <rect x="48" y="17" width="230" height="14" rx="4" fill="#1c1b1a" opacity="0.85"/>

  <!-- tile 1: new store opening (amber) -->
  <rect x="40" y="80" width="270" height="138" rx="12" fill="#ffffff" stroke="#e6e4e0"/>
  <circle cx="68" cy="108" r="13" fill="#fef3c7"/><text x="68" y="113" font-size="14" font-weight="700" fill="#d97706" text-anchor="middle">1</text>
  <rect x="150" y="132" width="56" height="26" fill="#ffffff" stroke="#d97706" stroke-width="2"/>
  <path d="M146 132 l8 -16 h48 l8 16 z" fill="#d97706" opacity="0.85"/>
  <path d="M178 116 l5 -12 l5 12 z" fill="#dc2626"/>
  <rect x="64" y="184" width="150" height="11" rx="4" fill="#d97706" opacity="0.7"/>

  <!-- tile 2: store closure & liquidation (teal) -->
  <rect x="326" y="80" width="274" height="138" rx="12" fill="#ffffff" stroke="#e6e4e0"/>
  <circle cx="354" cy="108" r="13" fill="#ccfbf1"/><text x="354" y="113" font-size="14" font-weight="700" fill="#0d9488" text-anchor="middle">2</text>
  <rect x="436" y="124" width="52" height="40" rx="3" fill="#ffffff" stroke="#0d9488" stroke-width="2"/>
  <path d="M448 144 l8 8 l16 -18" stroke="#0d9488" stroke-width="4" fill="none" stroke-linecap="round" stroke-linejoin="round"/>
  <rect x="350" y="184" width="170" height="11" rx="4" fill="#0d9488" opacity="0.7"/>

  <!-- tile 3: admin procurement (blue) -->
  <rect x="40" y="232" width="270" height="138" rx="12" fill="#ffffff" stroke="#e6e4e0"/>
  <circle cx="68" cy="260" r="13" fill="#dbeafe"/><text x="68" y="265" font-size="14" font-weight="700" fill="#2563eb" text-anchor="middle">3</text>
  <g fill="none" stroke="#2563eb" stroke-width="2.5" stroke-linecap="round" stroke-linejoin="round">
    <path d="M150 286 h8 l5 30 h26 l5 -22 h-38"/>
  </g>
  <circle cx="166" cy="324" r="4" fill="#2563eb"/><circle cx="190" cy="324" r="4" fill="#2563eb"/>
  <rect x="64" y="340" width="150" height="11" rx="4" fill="#2563eb" opacity="0.7"/>

  <!-- tile 4: vendor evaluation (violet) -->
  <rect x="326" y="232" width="274" height="138" rx="12" fill="#ffffff" stroke="#e6e4e0"/>
  <circle cx="354" cy="260" r="13" fill="#ede9fe"/><text x="354" y="265" font-size="14" font-weight="700" fill="#7c3aed" text-anchor="middle">4</text>
  <g fill="#7c3aed"><rect x="436" y="306" width="12" height="14" rx="2"/><rect x="454" y="296" width="12" height="24" rx="2"/><rect x="472" y="286" width="12" height="34" rx="2"/></g>
  <path d="M500 286 l3 7 l8 1 l-6 5 l2 8 l-7 -4 l-7 4 l2 -8 l-6 -5 l8 -1 z" fill="#16a34a"/>
  <rect x="350" y="340" width="170" height="11" rx="4" fill="#7c3aed" opacity="0.7"/>
</svg>
