<svg xmlns="http://www.w3.org/2000/svg" viewBox="0 0 640 400" font-family="Segoe UI, Arial, sans-serif">
  <rect width="640" height="400" fill="#fafaf9"/>
  <rect width="640" height="48" fill="#ffffff"/>
  <line x1="0" y1="48" x2="640" y2="48" stroke="#e6e4e0" stroke-width="2"/>
  <circle cx="28" cy="24" r="10" fill="#2563eb"/>
  <rect x="48" y="17" width="240" height="14" rx="4" fill="#1c1b1a" opacity="0.85"/>

  <!-- control board panel -->
  <rect x="24" y="68" width="592" height="308" rx="10" fill="#ffffff" stroke="#e6e4e0"/>
  <text x="44" y="98" font-size="14" font-weight="700" fill="#1c1b1a">Task compliance · 300+ stores</text>
  <text x="540" y="98" font-size="13" font-weight="700" fill="#0d9488" text-anchor="end">live</text>
  <line x1="44" y1="112" x2="596" y2="112" stroke="#eceae6" stroke-width="1.5"/>

  <!-- column header -->
  <text x="44" y="134" font-size="11" fill="#6b6964">STORE</text>
  <text x="210" y="134" font-size="11" fill="#6b6964">DAILY TASKS DONE</text>
  <text x="572" y="134" font-size="11" fill="#6b6964" text-anchor="end">STATUS</text>

  <!-- rows: store · progress bar · status dot -->
  <!-- row 1 -->
  <rect x="44" y="150" width="120" height="11" rx="4" fill="#6b6964" opacity="0.35"/>
  <rect x="210" y="148" width="320" height="14" rx="7" fill="#f0efec"/>
  <rect x="210" y="148" width="300" height="14" rx="7" fill="#0d9488"/>
  <circle cx="576" cy="155" r="7" fill="#16a34a"/>
  <!-- row 2 -->
  <rect x="44" y="190" width="100" height="11" rx="4" fill="#6b6964" opacity="0.35"/>
  <rect x="210" y="188" width="320" height="14" rx="7" fill="#f0efec"/>
  <rect x="210" y="188" width="268" height="14" rx="7" fill="#0d9488"/>
  <circle cx="576" cy="195" r="7" fill="#16a34a"/>
  <!-- row 3 (behind) -->
  <rect x="44" y="230" width="132" height="11" rx="4" fill="#6b6964" opacity="0.35"/>
  <rect x="210" y="228" width="320" height="14" rx="7" fill="#f0efec"/>
  <rect x="210" y="228" width="188" height="14" rx="7" fill="#d97706"/>
  <circle cx="576" cy="235" r="7" fill="#d97706"/>
  <!-- row 4 -->
  <rect x="44" y="270" width="110" height="11" rx="4" fill="#6b6964" opacity="0.35"/>
  <rect x="210" y="268" width="320" height="14" rx="7" fill="#f0efec"/>
  <rect x="210" y="268" width="288" height="14" rx="7" fill="#0d9488"/>
  <circle cx="576" cy="275" r="7" fill="#16a34a"/>
  <!-- row 5 (flagged) -->
  <rect x="44" y="310" width="124" height="11" rx="4" fill="#6b6964" opacity="0.35"/>
  <rect x="210" y="308" width="320" height="14" rx="7" fill="#f0efec"/>
  <rect x="210" y="308" width="96" height="14" rx="7" fill="#dc2626"/>
  <circle cx="576" cy="315" r="7" fill="#dc2626"/>
  <!-- row 6 -->
  <rect x="44" y="350" width="96" height="11" rx="4" fill="#6b6964" opacity="0.35"/>
  <rect x="210" y="348" width="320" height="14" rx="7" fill="#f0efec"/>
  <rect x="210" y="348" width="312" height="14" rx="7" fill="#0d9488"/>
  <circle cx="576" cy="355" r="7" fill="#16a34a"/>
</svg>
