<svg xmlns="http://www.w3.org/2000/svg" viewBox="0 0 640 400" font-family="Segoe UI, Arial, sans-serif">
  <defs>
    <linearGradient id="bg" x1="0" y1="0" x2="1" y2="1">
      <stop offset="0%" stop-color="#0b0a14"/>
      <stop offset="100%" stop-color="#1a1030"/>
    </linearGradient>
    <linearGradient id="wave" x1="0" y1="0" x2="1" y2="0">
      <stop offset="0%" stop-color="#7c3aed"/>
      <stop offset="50%" stop-color="#a78bfa"/>
      <stop offset="100%" stop-color="#2dd4bf"/>
    </linearGradient>
  </defs>
  <rect width="640" height="400" fill="url(#bg)"/>
  <!-- glow -->
  <circle cx="320" cy="180" r="130" fill="#7c3aed" opacity="0.18"/>
  <circle cx="320" cy="180" r="80" fill="#a78bfa" opacity="0.12"/>
  <!-- play button -->
  <circle cx="320" cy="170" r="46" fill="#ffffff" opacity="0.1"/>
  <circle cx="320" cy="170" r="46" fill="none" stroke="url(#wave)" stroke-width="3"/>
  <path d="M 306 148 L 344 170 L 306 192 Z" fill="#ffffff"/>
  <!-- waveform -->
  <g fill="url(#wave)" opacity="0.9">
    <rect x="80"  y="276" width="8" height="28" rx="4"/>
    <rect x="100" y="262" width="8" height="56" rx="4"/>
    <rect x="120" y="270" width="8" height="40" rx="4"/>
    <rect x="140" y="250" width="8" height="80" rx="4"/>
    <rect x="160" y="266" width="8" height="48" rx="4"/>
    <rect x="180" y="244" width="8" height="92" rx="4"/>
    <rect x="200" y="258" width="8" height="64" rx="4"/>
    <rect x="220" y="238" width="8" height="104" rx="4"/>
    <rect x="240" y="254" width="8" height="72" rx="4"/>
    <rect x="260" y="246" width="8" height="88" rx="4"/>
    <rect x="280" y="262" width="8" height="56" rx="4"/>
    <rect x="300" y="240" width="8" height="100" rx="4"/>
    <rect x="320" y="252" width="8" height="76" rx="4"/>
    <rect x="340" y="236" width="8" height="108" rx="4"/>
    <rect x="360" y="256" width="8" height="68" rx="4"/>
    <rect x="380" y="248" width="8" height="84" rx="4"/>
    <rect x="400" y="264" width="8" height="52" rx="4"/>
    <rect x="420" y="242" width="8" height="96" rx="4"/>
    <rect x="440" y="260" width="8" height="60" rx="4"/>
    <rect x="460" y="252" width="8" height="76" rx="4"/>
    <rect x="480" y="268" width="8" height="44" rx="4"/>
    <rect x="500" y="258" width="8" height="64" rx="4"/>
    <rect x="520" y="272" width="8" height="36" rx="4"/>
    <rect x="540" y="264" width="8" height="52" rx="4"/>
  </g>
  <!-- title -->
  <text x="320" y="86" font-size="28" font-weight="700" fill="#ffffff" text-anchor="middle" letter-spacing="8">VIVI SOUL</text>
  <text x="320" y="110" font-size="13" fill="#a78bfa" text-anchor="middle" letter-spacing="3">AI MUSIC · YOUTUBE CHANNEL</text>
</svg>
